P3
# Created by IrfanView
16 16
255
0 0 0 0 0 0 0 0 0 0 0 0 0 0 0 
0 0 0 0 0 0 0 0 0 0 0 0 0 0 0 
0 0 0 0 0 0 0 0 0 0 0 0 0 0 0 
0 0 0 0 0 0 1 1 1 6 6 6 11 11 11 
15 15 15 19 19 19 24 24 24 29 29 29 33 33 33 
38 38 38 42 42 42 46 46 46 49 49 49 45 45 45 
17 17 17 0 0 0 0 0 0 3 3 3 48 48 48 
68 68 68 85 85 85 105 105 105 127 127 127 149 149 149 
172 172 172 193 193 193 213 213 213 230 230 230 245 245 245 
198 198 198 44 44 44 0 0 0 0 0 0 4 4 4 
53 53 53 51 51 51 71 71 71 93 93 93 116 116 116 
140 140 140 165 165 165 188 188 188 209 209 209 228 228 228 
244 244 244 254 254 254 48 48 48 0 0 0 0 0 0 
4 4 4 51 51 51 51 51 51 71 71 71 93 93 93 
116 116 116 140 140 140 165 165 165 188 188 188 209 209 209 
228 228 228 244 244 244 254 254 254 47 47 47 0 0 0 
0 0 0 4 4 4 51 51 51 51 51 51 71 71 71 
93 93 93 116 116 116 140 140 140 165 165 165 188 188 188 
209 209 209 228 228 228 244 244 244 254 254 254 45 45 45 
0 0 0 0 0 0 4 4 4 51 51 51 51 51 51 
71 71 71 93 93 93 116 116 116 140 140 140 165 165 165 
188 188 188 209 209 209 228 228 228 244 244 244 254 254 254 
44 44 44 0 0 0 0 0 0 4 4 4 51 51 51 
51 51 51 71 71 71 93 93 93 116 116 116 140 140 140 
165 165 165 188 188 188 209 209 209 228 228 228 244 244 244 
254 254 254 41 41 41 0 0 0 0 0 0 4 4 4 
51 51 51 51 51 51 71 71 71 93 93 93 116 116 116 
140 140 140 165 165 165 188 188 188 209 209 209 228 228 228 
244 244 244 254 254 254 39 39 39 0 0 0 0 0 0 
4 4 4 51 51 51 51 51 51 71 71 71 93 93 93 
116 116 116 140 140 140 165 165 165 188 188 188 209 209 209 
228 228 228 244 244 244 254 254 254 36 36 36 0 0 0 
0 0 0 3 3 3 51 51 51 51 51 51 71 71 71 
93 93 93 116 116 116 140 140 140 165 165 165 188 188 188 
209 209 209 228 228 228 244 244 244 254 254 254 34 34 34 
0 0 0 0 0 0 3 3 3 51 51 51 51 51 51 
71 71 71 93 93 93 116 116 116 140 140 140 165 165 165 
188 188 188 209 209 209 228 228 228 244 244 244 254 254 254 
31 31 31 0 0 0 0 0 0 3 3 3 53 53 53 
51 51 51 71 71 71 93 93 93 116 116 116 140 140 140 
165 165 165 188 188 188 209 209 209 228 228 228 244 244 244 
254 254 254 27 27 27 0 0 0 0 0 0 2 2 2 
46 46 46 68 68 68 85 85 85 105 105 105 127 127 127 
149 149 149 172 172 172 193 193 193 213 213 213 230 230 230 
245 245 245 186 186 186 15 15 15 0 0 0 0 0 0 
0 0 0 1 1 1 2 2 2 2 2 2 2 2 2 
4 4 4 4 4 4 5 5 5 5 5 5 6 6 6 
6 6 6 6 6 6 6 6 6 3 3 3 0 0 0 
0 0 0 0 0 0 0 0 0 0 0 0 0 0 0 
0 0 0 0 0 0 0 0 0 0 0 0 0 0 0 
0 0 0 0 0 0 0 0 0 0 0 0 0 0 0 
0 0 0 